<?xml version="1.0" encoding="iso-8859-1"?>
<!-- Generator: Adobe Illustrator 19.0.0, SVG Export Plug-In . SVG Version: 6.00 Build 0)  -->
<svg version="1.1" id="Capa_1" xmlns="http://www.w3.org/2000/svg" xmlns:xlink="http://www.w3.org/1999/xlink" x="0px" y="0px"
	 viewBox="0 0 512.005 512.005" style="enable-background:new 0 0 512.005 512.005;" xml:space="preserve">
<path style="fill:#D2F0FF;" d="M224.908,131.753c-9.392-9.392-24.618-9.392-34.01,0L7.5,315.151v105.481l56.113-10.559
	l271.38-168.235L224.908,131.753z"/>
<path style="fill:#FFFFFF;" d="M276.822,183.666l-51.914-51.914c-9.391-9.391-24.618-9.391-34.01,0l-46.822,46.822l20.844,20.844
	c3.13,3.13,8.206,3.13,11.336,0l14.382-14.382c3.131-3.13,8.206-3.13,11.337,0l32.584,32.585L276.822,183.666z"/>
<path style="fill:#BEDCF0;" d="M361.182,98.417c-9.392-9.391-24.618-9.391-34.01,0L111.71,313.88v80.549
	c79.999-24.001,159.017-53.957,248.5-53.957c96.194,0,144.29,24.651,144.29,24.651V241.735L361.182,98.417z"/>
<g>
	<polygon style="fill:#BE788C;" points="456.403,316.423 432.355,300.391 408.307,316.423 408.307,340.471 456.403,348.487 	"/>
	<polygon style="fill:#BE788C;" points="199.887,313.88 175.839,337.928 175.839,378.009 223.936,361.977 223.936,337.928 	"/>
</g>
<g>
	<polygon style="fill:#CD91A5;" points="360.21,241.735 312.113,289.832 312.113,340.471 408.307,340.471 408.307,289.832 	"/>
	<polygon style="fill:#CD91A5;" points="100.05,305.864 63.613,345.945 63.613,404.6 143.774,388.568 143.774,353.961 	"/>
</g>
<g>
	<path style="fill:#FFFFFF;" d="M244.967,258.803l-19.636,58.907c-0.687,2.06,0.846,4.186,3.017,4.186h39.271
		c2.171,0,3.704-2.127,3.017-4.186L251,258.803C250.035,255.903,245.933,255.903,244.967,258.803z"/>
	<path style="fill:#FFFFFF;" d="M60.596,314.916L40.96,373.823c-0.687,2.06,0.846,4.186,3.017,4.186h39.271
		c2.171,0,3.704-2.127,3.017-4.186L66.63,314.916C65.664,312.016,61.562,312.016,60.596,314.916z"/>
	<path style="fill:#FFFFFF;" d="M477.434,258.803l-19.636,58.907c-0.686,2.06,0.846,4.186,3.017,4.186h39.271
		c2.171,0,3.704-2.127,3.017-4.186l-19.636-58.907C482.503,255.903,478.401,255.903,477.434,258.803z"/>
	<path style="fill:#FFFFFF;" d="M293.063,274.835l-19.636,58.907c-0.686,2.06,0.846,4.186,3.017,4.186h39.271
		c2.171,0,3.704-2.127,3.017-4.186l-19.636-58.907C298.132,271.936,294.03,271.936,293.063,274.835z"/>
</g>
<path style="fill:#E8F7FF;" d="M361.182,98.417c-9.391-9.391-24.618-9.391-34.01,0l-87.205,87.205l16.72,16.72
	c6.261,6.261,16.412,6.261,22.673,0l37.09-37.089c2.723-2.724,7.139-2.724,9.863,0l31.829,31.829c6.261,6.261,16.412,6.261,22.673,0
	l14.544-14.544c2.724-2.724,7.139-2.724,9.864,0l0.015,0.015c6.261,6.261,16.412,6.261,22.673,0l8.704-8.704L361.182,98.417z"/>
<path d="M7.5,321.38c1.919,0,3.839-0.732,5.303-2.197L143.44,188.546l16.177,16.177c6.049,6.049,15.892,6.049,21.943,0
	l14.382-14.382c0.038-0.037,0.151-0.151,0.365-0.151c0.213,0,0.327,0.114,0.365,0.151l13.986,13.986l-3.423,3.423
	c-2.929,2.929-2.929,7.678,0,10.606c2.929,2.929,7.678,2.929,10.606,0l22.127-22.127l11.417,11.417
	c4.587,4.588,10.614,6.881,16.64,6.881s12.052-2.293,16.64-6.881l14.716-14.716c2.929-2.929,2.929-7.678,0-10.606
	c-2.929-2.929-7.678-2.929-10.606,0l-14.716,14.716c-3.327,3.328-8.74,3.327-12.067,0l-11.417-11.417l81.902-81.902
	c3.125-3.125,7.281-4.847,11.701-4.847c4.42,0,8.576,1.722,11.702,4.847l70.128,70.128l-3.4,3.4
	c-3.317,3.317-8.708,3.327-12.037,0.03c-0.015-0.015-0.03-0.03-0.044-0.044c-5.643-5.644-14.825-5.644-20.469,0l-14.544,14.544
	c-3.327,3.328-8.74,3.327-12.067,0l-31.829-31.829c-2.734-2.734-6.369-4.24-10.234-4.24c-3.866,0-7.501,1.506-10.235,4.24
	c-2.929,2.929-2.929,7.678,0,10.606c2.804,2.804,7.276,2.923,10.222,0.359l31.47,31.469c4.587,4.588,10.614,6.881,16.64,6.881
	c6.026,0,12.052-2.293,16.64-6.881l14.176-14.175c9.202,8.82,23.864,8.702,32.919-0.354l3.4-3.4l62.583,62.583
	c1.464,1.464,3.384,2.197,5.303,2.197s3.839-0.732,5.303-2.197c2.929-2.929,2.929-7.678,0-10.606L366.485,93.114
	c-5.958-5.959-13.881-9.241-22.308-9.241s-16.349,3.282-22.308,9.241l-61.861,61.861l-29.797-29.797
	c-5.958-5.959-13.881-9.24-22.308-9.24s-16.35,3.281-22.308,9.24L2.197,308.577c-2.929,2.929-2.929,7.678,0,10.606
	C3.661,320.647,5.581,321.38,7.5,321.38z M196.202,135.785c6.452-6.452,16.951-6.452,23.403,0l29.797,29.797l-28.138,28.138
	l-13.985-13.985c-2.931-2.931-6.827-4.545-10.972-4.545s-8.042,1.614-10.972,4.545l-14.381,14.381c-0.202,0.201-0.529,0.202-0.73,0
	l-16.177-16.177L196.202,135.785z"/>
<path d="M507.455,355.083c-0.776-0.333-7.444-3.137-19.503-6.743v-18.944H504.5c2.46,0,4.763-1.206,6.165-3.228
	c1.401-2.022,1.722-4.602,0.858-6.905l-24.048-64.129c-1.098-2.927-3.896-4.867-7.022-4.867s-5.925,1.939-7.022,4.867L455.106,304
	l-18.589-12.393c-2.52-1.68-5.801-1.68-8.32,0l-12.388,8.259v-10.035c0-1.989-0.79-3.897-2.197-5.303l-48.097-48.097
	c-2.929-2.929-7.678-2.929-10.606,0l-45.528,45.528l-6.183-18.548c-1.021-3.063-3.887-5.128-7.115-5.128s-6.094,2.066-7.115,5.128
	l-14.261,42.783l-19.605-58.815c-1.021-3.063-3.887-5.128-7.115-5.128s-6.094,2.066-7.115,5.128l-24.048,72.145
	c-0.059,0.177-0.099,0.358-0.144,0.538l-11.486-11.486c-2.929-2.929-7.678-2.929-10.606,0l-24.048,24.048
	c-1.407,1.406-2.197,3.314-2.197,5.303v35.51c-5.609,1.859-11.294,3.726-17.064,5.589v-33.083c0-1.989-0.79-3.897-2.197-5.303
	l-26.762-26.761l73.731-73.731c2.929-2.929,2.929-7.678,0-10.606c-2.929-2.929-7.678-2.929-10.606,0l-73.731,73.731l-2.713-2.713
	c-1.407-1.407-3.314-2.197-5.303-2.197s-3.897,0.79-5.303,2.197l-23.1,23.1l-4.655-12.414c-1.098-2.927-3.896-4.867-7.022-4.867
	s-5.925,1.939-7.022,4.867l-24.048,64.129c-0.864,2.303-0.543,4.883,0.858,6.905s3.705,3.228,6.165,3.228h16.548v19.543
	c-15.358,3.225-31.211,6.004-47.595,8.143c-4.107,0.536-7.002,4.3-6.466,8.408c0.493,3.778,3.717,6.53,7.428,6.53
	c0.323,0,0.65-0.021,0.98-0.064c68.743-8.973,127.873-28.755,180.043-46.209c34.793-11.64,66.761-22.333,98.078-29.082v17.214
	c0,4.142,3.358,7.5,7.5,7.5s7.5-3.358,7.5-7.5v-20.138c16.185-2.809,32.288-4.427,48.613-4.427
	c93.274,0,148.809,23.21,149.352,23.442c3.809,1.632,8.216-0.132,9.848-3.939C513.026,361.123,511.262,356.715,507.455,355.083z
	 M472.952,344.238c-2.848-0.712-5.866-1.431-9.048-2.147v-12.696h9.048V344.238z M480.452,279.127l13.226,35.269h-26.452
	L480.452,279.127z M432.355,306.861l16.548,11.032v21.109c-9.874-1.851-20.929-3.576-33.097-4.987v-16.122L432.355,306.861z
	 M296.081,289.5l13.643,40.928h-27.285L296.081,289.5z M265.948,342.313c0.106,0.147,0.225,0.28,0.34,0.417
	c-3.596,0.926-7.197,1.89-10.804,2.89v-16.225h11.487l-2.054,6.161C264.155,337.844,264.538,340.358,265.948,342.313z
	 M247.984,273.468l13.643,40.928h-27.285L247.984,273.468z M240.484,329.396v20.558c-3.011,0.902-6.027,1.823-9.048,2.761v-14.787
	c0-1.989-0.79-3.897-2.197-5.303l-3.229-3.229H240.484z M63.613,335.24l13.226,35.269H50.387L63.613,335.24z M71.113,385.509h16.548
	c2.46,0,4.763-1.206,6.165-3.228c1.401-2.022,1.722-4.602,0.858-6.905l-13.608-36.288l22.618-22.618l32.581,32.581v34.735
	c-20.663,6.434-42.351,12.632-65.162,17.943C71.113,401.729,71.113,385.509,71.113,385.509z M185.743,367.635
	c-0.798,0.267-1.603,0.536-2.404,0.804v-27.405l16.548-16.548l16.548,16.548v16.443
	C206.291,360.763,196.069,364.181,185.743,367.635z M325.968,331.729l-6.356-19.067v-19.725l40.597-40.597l40.597,40.597v39.56
	c-14.819-1.285-31.046-2.07-48.613-2.07C343.427,330.428,334.691,330.887,325.968,331.729z"/>
<path d="M111.71,354.476c-4.142,0-7.5,3.358-7.5,7.5v8.016c0,4.142,3.358,7.5,7.5,7.5s7.5-3.358,7.5-7.5v-8.016
	C119.21,357.834,115.852,354.476,111.71,354.476z"/>
<path d="M344.177,290.348c-4.142,0-7.5,3.358-7.5,7.5v8.016c0,4.142,3.358,7.5,7.5,7.5s7.5-3.358,7.5-7.5v-8.016
	C351.677,293.705,348.319,290.348,344.177,290.348z"/>
<path d="M376.242,290.348c-4.142,0-7.5,3.358-7.5,7.5v8.016c0,4.142,3.358,7.5,7.5,7.5s7.5-3.358,7.5-7.5v-8.016
	C383.742,293.705,380.384,290.348,376.242,290.348z"/>
<g>
</g>
<g>
</g>
<g>
</g>
<g>
</g>
<g>
</g>
<g>
</g>
<g>
</g>
<g>
</g>
<g>
</g>
<g>
</g>
<g>
</g>
<g>
</g>
<g>
</g>
<g>
</g>
<g>
</g>
</svg>
